<svg version="1.1" xmlns="http://www.w3.org/2000/svg" xmlns:xlink="http://www.w3.org/1999/xlink" width="731" height="507"><defs/><g><text fill="#eeeeee" stroke="none" font-family="Arial" font-size="24px" font-style="normal" font-weight="normal" text-decoration="none" x="0" y="0"></text><text fill="#eeeeee" stroke="none" font-family="Arial" font-size="24px" font-style="normal" font-weight="normal" text-decoration="none" x="0" y="30"></text><text fill="#eeeeee" stroke="none" font-family="Arial" font-size="24px" font-style="normal" font-weight="normal" text-decoration="none" x="0" y="60"></text><text fill="#eeeeee" stroke="none" font-family="Arial" font-size="24px" font-style="normal" font-weight="normal" text-decoration="none" x="0" y="90"></text><text fill="#eeeeee" stroke="none" font-family="Arial" font-size="24px" font-style="normal" font-weight="normal" text-decoration="none" x="0" y="120"></text><text fill="#eeeeee" stroke="none" font-family="Arial" font-size="24px" font-style="normal" font-weight="normal" text-decoration="none" x="0" y="150"></text><text fill="#eeeeee" stroke="none" font-family="Arial" font-size="24px" font-style="normal" font-weight="normal" text-decoration="none" x="0" y="180"></text><text fill="#eeeeee" stroke="none" font-family="Arial" font-size="24px" font-style="normal" font-weight="normal" text-decoration="none" x="0" y="210"></text><text fill="#eeeeee" stroke="none" font-family="Arial" font-size="24px" font-style="normal" font-weight="normal" text-decoration="none" x="0" y="240"></text><text fill="#eeeeee" stroke="none" font-family="Arial" font-size="24px" font-style="normal" font-weight="normal" text-decoration="none" x="0" y="270"></text><text fill="#eeeeee" stroke="none" font-family="Arial" font-size="24px" font-style="normal" font-weight="normal" text-decoration="none" x="0" y="300"></text><text fill="#eeeeee" stroke="none" font-family="Arial" font-size="24px" font-style="normal" font-weight="normal" text-decoration="none" x="0" y="330"></text><text fill="#eeeeee" stroke="none" font-family="Arial" font-size="24px" font-style="normal" font-weight="normal" text-decoration="none" x="0" y="360"></text><text fill="#eeeeee" stroke="none" font-family="Arial" font-size="24px" font-style="normal" font-weight="normal" text-decoration="none" x="0" y="390"></text><text fill="#eeeeee" stroke="none" font-family="Arial" font-size="24px" font-style="normal" font-weight="normal" text-decoration="none" x="0" y="420"></text><text fill="#eeeeee" stroke="none" font-family="Arial" font-size="24px" font-style="normal" font-weight="normal" text-decoration="none" x="0" y="450"></text><text fill="#eeeeee" stroke="none" font-family="Arial" font-size="24px" font-style="normal" font-weight="normal" text-decoration="none" x="0" y="480"></text><text fill="#eeeeee" stroke="none" font-family="Arial" font-size="24px" font-style="normal" font-weight="normal" text-decoration="none" x="200" y="0"></text><text fill="#eeeeee" stroke="none" font-family="Arial" font-size="24px" font-style="normal" font-weight="normal" text-decoration="none" x="200" y="30"></text><text fill="#eeeeee" stroke="none" font-family="Arial" font-size="24px" font-style="normal" font-weight="normal" text-decoration="none" x="200" y="60"></text><text fill="#eeeeee" stroke="none" font-family="Arial" font-size="24px" font-style="normal" font-weight="normal" text-decoration="none" x="200" y="90"></text><text fill="#eeeeee" stroke="none" font-family="Arial" font-size="24px" font-style="normal" font-weight="normal" text-decoration="none" x="200" y="120"></text><text fill="#eeeeee" stroke="none" font-family="Arial" font-size="24px" font-style="normal" font-weight="normal" text-decoration="none" x="200" y="150"></text><text fill="#eeeeee" stroke="none" font-family="Arial" font-size="24px" font-style="normal" font-weight="normal" text-decoration="none" x="200" y="180"></text><text fill="#eeeeee" stroke="none" font-family="Arial" font-size="24px" font-style="normal" font-weight="normal" text-decoration="none" x="200" y="210"></text><text fill="#eeeeee" stroke="none" font-family="Arial" font-size="24px" font-style="normal" font-weight="normal" text-decoration="none" x="200" y="240"></text><text fill="#eeeeee" stroke="none" font-family="Arial" font-size="24px" font-style="normal" font-weight="normal" text-decoration="none" x="200" y="270"></text><text fill="#eeeeee" stroke="none" font-family="Arial" font-size="24px" font-style="normal" font-weight="normal" text-decoration="none" x="200" y="300"></text><text fill="#eeeeee" stroke="none" font-family="Arial" font-size="24px" font-style="normal" font-weight="normal" text-decoration="none" x="200" y="330"></text><text fill="#eeeeee" stroke="none" font-family="Arial" font-size="24px" font-style="normal" font-weight="normal" text-decoration="none" x="200" y="360"></text><text fill="#eeeeee" stroke="none" font-family="Arial" font-size="24px" font-style="normal" font-weight="normal" text-decoration="none" x="200" y="390"></text><text fill="#eeeeee" stroke="none" font-family="Arial" font-size="24px" font-style="normal" font-weight="normal" text-decoration="none" x="200" y="420"></text><text fill="#eeeeee" stroke="none" font-family="Arial" font-size="24px" font-style="normal" font-weight="normal" text-decoration="none" x="200" y="450"></text><text fill="#eeeeee" stroke="none" font-family="Arial" font-size="24px" font-style="normal" font-weight="normal" text-decoration="none" x="200" y="480"></text><text fill="#eeeeee" stroke="none" font-family="Arial" font-size="24px" font-style="normal" font-weight="normal" text-decoration="none" x="400" y="0"></text><text fill="#eeeeee" stroke="none" font-family="Arial" font-size="24px" font-style="normal" font-weight="normal" text-decoration="none" x="400" y="30"></text><text fill="#eeeeee" stroke="none" font-family="Arial" font-size="24px" font-style="normal" font-weight="normal" text-decoration="none" x="400" y="60"></text><text fill="#eeeeee" stroke="none" font-family="Arial" font-size="24px" font-style="normal" font-weight="normal" text-decoration="none" x="400" y="90"></text><text fill="#eeeeee" stroke="none" font-family="Arial" font-size="24px" font-style="normal" font-weight="normal" text-decoration="none" x="400" y="120"></text><text fill="#eeeeee" stroke="none" font-family="Arial" font-size="24px" font-style="normal" font-weight="normal" text-decoration="none" x="400" y="150"></text><text fill="#eeeeee" stroke="none" font-family="Arial" font-size="24px" font-style="normal" font-weight="normal" text-decoration="none" x="400" y="180"></text><text fill="#eeeeee" stroke="none" font-family="Arial" font-size="24px" font-style="normal" font-weight="normal" text-decoration="none" x="400" y="210"></text><text fill="#eeeeee" stroke="none" font-family="Arial" font-size="24px" font-style="normal" font-weight="normal" text-decoration="none" x="400" y="240"></text><text fill="#eeeeee" stroke="none" font-family="Arial" font-size="24px" font-style="normal" font-weight="normal" text-decoration="none" x="400" y="270"></text><text fill="#eeeeee" stroke="none" font-family="Arial" font-size="24px" font-style="normal" font-weight="normal" text-decoration="none" x="400" y="300"></text><text fill="#eeeeee" stroke="none" font-family="Arial" font-size="24px" font-style="normal" font-weight="normal" text-decoration="none" x="400" y="330"></text><text fill="#eeeeee" stroke="none" font-family="Arial" font-size="24px" font-style="normal" font-weight="normal" text-decoration="none" x="400" y="360"></text><text fill="#eeeeee" stroke="none" font-family="Arial" font-size="24px" font-style="normal" font-weight="normal" text-decoration="none" x="400" y="390"></text><text fill="#eeeeee" stroke="none" font-family="Arial" font-size="24px" font-style="normal" font-weight="normal" text-decoration="none" x="400" y="420"></text><text fill="#eeeeee" stroke="none" font-family="Arial" font-size="24px" font-style="normal" font-weight="normal" text-decoration="none" x="400" y="450"></text><text fill="#eeeeee" stroke="none" font-family="Arial" font-size="24px" font-style="normal" font-weight="normal" text-decoration="none" x="400" y="480"></text><text fill="#eeeeee" stroke="none" font-family="Arial" font-size="24px" font-style="normal" font-weight="normal" text-decoration="none" x="600" y="0"></text><text fill="#eeeeee" stroke="none" font-family="Arial" font-size="24px" font-style="normal" font-weight="normal" text-decoration="none" x="600" y="30"></text><text fill="#eeeeee" stroke="none" font-family="Arial" font-size="24px" font-style="normal" font-weight="normal" text-decoration="none" x="600" y="60"></text><text fill="#eeeeee" stroke="none" font-family="Arial" font-size="24px" font-style="normal" font-weight="normal" text-decoration="none" x="600" y="90"></text><text fill="#eeeeee" stroke="none" font-family="Arial" font-size="24px" font-style="normal" font-weight="normal" text-decoration="none" x="600" y="120"></text><text fill="#eeeeee" stroke="none" font-family="Arial" font-size="24px" font-style="normal" font-weight="normal" text-decoration="none" x="600" y="150"></text><text fill="#eeeeee" stroke="none" font-family="Arial" font-size="24px" font-style="normal" font-weight="normal" text-decoration="none" x="600" y="180"></text><text fill="#eeeeee" stroke="none" font-family="Arial" font-size="24px" font-style="normal" font-weight="normal" text-decoration="none" x="600" y="210"></text><text fill="#eeeeee" stroke="none" font-family="Arial" font-size="24px" font-style="normal" font-weight="normal" text-decoration="none" x="600" y="240"></text><text fill="#eeeeee" stroke="none" font-family="Arial" font-size="24px" font-style="normal" font-weight="normal" text-decoration="none" x="600" y="270"></text><text fill="#eeeeee" stroke="none" font-family="Arial" font-size="24px" font-style="normal" font-weight="normal" text-decoration="none" x="600" y="300"></text><text fill="#eeeeee" stroke="none" font-family="Arial" font-size="24px" font-style="normal" font-weight="normal" text-decoration="none" x="600" y="330"></text><text fill="#eeeeee" stroke="none" font-family="Arial" font-size="24px" font-style="normal" font-weight="normal" text-decoration="none" x="600" y="360"></text><text fill="#eeeeee" stroke="none" font-family="Arial" font-size="24px" font-style="normal" font-weight="normal" text-decoration="none" x="600" y="390"></text><text fill="#eeeeee" stroke="none" font-family="Arial" font-size="24px" font-style="normal" font-weight="normal" text-decoration="none" x="600" y="420"></text><text fill="#eeeeee" stroke="none" font-family="Arial" font-size="24px" font-style="normal" font-weight="normal" text-decoration="none" x="600" y="450"></text><text fill="#eeeeee" stroke="none" font-family="Arial" font-size="24px" font-style="normal" font-weight="normal" text-decoration="none" x="600" y="480"></text><g transform="translate(-630,-102) scale(1,1)"><rect fill="#C0C0C0" stroke="none" x="1183" y="463" width="70" height="15" opacity="0.2"/></g><g transform="translate(-630,-102) scale(1,1)"><rect fill="#C0C0C0" stroke="none" x="1183" y="477" width="175" height="90" opacity="0.2"/></g><g transform="translate(-630,-102) scale(1,1)"><rect fill="#38bcff" stroke="none" x="1176" y="471" width="175" height="89"/></g><g transform="translate(-630,-102) scale(1,1)"><path fill="none" stroke="#000000" d="M 1176 471 L 1351 471 L 1351 560 L 1176 560 L 1176 471 Z Z" stroke-miterlimit="10"/></g><g transform="translate(-630,-102) scale(1,1)"><rect fill="#38bcff" stroke="none" x="1176" y="456" width="70" height="15"/></g><g transform="translate(-630,-102) scale(1,1)"><path fill="none" stroke="#000000" d="M 1176 456 L 1246 456 L 1246 471 L 1176 471 L 1176 456 Z Z" stroke-miterlimit="10"/></g><g transform="translate(-630,-102) scale(1,1)"><rect fill="#38bcff" stroke="none" x="1176" y="470" width="175" height="90"/></g><g transform="translate(-630,-102) scale(1,1)"><path fill="none" stroke="#000000" d="M 1176 470 L 1351 470 L 1351 560 L 1176 560 L 1176 470 Z Z" stroke-miterlimit="10"/></g><g transform="translate(-630,-102) scale(1,1)"><g><path fill="none" stroke="none"/><text fill="#000000" stroke="none" font-family="Arial" font-size="13px" font-style="normal" font-weight="bold" text-decoration="none" x="1235.32275390625" y="490.5">Controller</text></g></g><g transform="translate(-630,-102) scale(1,1)"><rect fill="#C0C0C0" stroke="none" x="647" y="223" width="70" height="15" opacity="0.2"/></g><g transform="translate(-630,-102) scale(1,1)"><rect fill="#C0C0C0" stroke="none" x="647" y="237" width="175" height="89" opacity="0.2"/></g><g transform="translate(-630,-102) scale(1,1)"><rect fill="#00ff00" stroke="none" x="640" y="231" width="175" height="88"/></g><g transform="translate(-630,-102) scale(1,1)"><path fill="none" stroke="#000000" d="M 640 231 L 815 231 L 815 319 L 640 319 L 640 231 Z Z" stroke-miterlimit="10"/></g><g transform="translate(-630,-102) scale(1,1)"><rect fill="#00ff00" stroke="none" x="640" y="216" width="70" height="15"/></g><g transform="translate(-630,-102) scale(1,1)"><path fill="none" stroke="#000000" d="M 640 216 L 710 216 L 710 231 L 640 231 L 640 216 Z Z" stroke-miterlimit="10"/></g><g transform="translate(-630,-102) scale(1,1)"><rect fill="#00ff00" stroke="none" x="640" y="230" width="175" height="89"/></g><g transform="translate(-630,-102) scale(1,1)"><path fill="none" stroke="#000000" d="M 640 230 L 815 230 L 815 319 L 640 319 L 640 230 Z Z" stroke-miterlimit="10"/></g><g transform="translate(-630,-102) scale(1,1)"><g><path fill="none" stroke="none"/><text fill="#000000" stroke="none" font-family="Arial" font-size="13px" font-style="normal" font-weight="bold" text-decoration="none" x="713.52880859375" y="250.5">View</text></g></g><g transform="translate(-630,-102) scale(1,1)"><rect fill="#C0C0C0" stroke="none" x="807" y="503" width="70" height="15" opacity="0.2"/></g><g transform="translate(-630,-102) scale(1,1)"><rect fill="#C0C0C0" stroke="none" x="807" y="517" width="175" height="89" opacity="0.2"/></g><g transform="translate(-630,-102) scale(1,1)"><rect fill="#ffca2b" stroke="none" x="800" y="511" width="175" height="88"/></g><g transform="translate(-630,-102) scale(1,1)"><path fill="none" stroke="#000000" d="M 800 511 L 975 511 L 975 599 L 800 599 L 800 511 Z Z" stroke-miterlimit="10"/></g><g transform="translate(-630,-102) scale(1,1)"><rect fill="#ffca2b" stroke="none" x="800" y="496" width="70" height="15"/></g><g transform="translate(-630,-102) scale(1,1)"><path fill="none" stroke="#000000" d="M 800 496 L 870 496 L 870 511 L 800 511 L 800 496 Z Z" stroke-miterlimit="10"/></g><g transform="translate(-630,-102) scale(1,1)"><rect fill="#ffca2b" stroke="none" x="800" y="510" width="175" height="89"/></g><g transform="translate(-630,-102) scale(1,1)"><path fill="none" stroke="#000000" d="M 800 510 L 975 510 L 975 599 L 800 599 L 800 510 Z Z" stroke-miterlimit="10"/></g><g transform="translate(-630,-102) scale(1,1)"><g><path fill="none" stroke="none"/><text fill="#000000" stroke="none" font-family="Arial" font-size="13px" font-style="normal" font-weight="bold" text-decoration="none" x="869.79638671875" y="530.5">Model</text></g></g><g transform="translate(-630,-102) scale(1,1)"><rect fill="#C0C0C0" stroke="none" x="1039" y="119" width="70" height="15" opacity="0.2"/></g><g transform="translate(-630,-102) scale(1,1)"><rect fill="#C0C0C0" stroke="none" x="1039" y="133" width="175" height="89" opacity="0.2"/></g><g transform="translate(-630,-102) scale(1,1)"><rect fill="#ff0000" stroke="none" x="1032" y="127" width="175" height="88"/></g><g transform="translate(-630,-102) scale(1,1)"><path fill="none" stroke="#000000" d="M 1032 127 L 1207 127 L 1207 215 L 1032 215 L 1032 127 Z Z" stroke-miterlimit="10"/></g><g transform="translate(-630,-102) scale(1,1)"><rect fill="#ff0000" stroke="none" x="1032" y="112" width="70" height="15"/></g><g transform="translate(-630,-102) scale(1,1)"><path fill="none" stroke="#000000" d="M 1032 112 L 1102 112 L 1102 127 L 1032 127 L 1032 112 Z Z" stroke-miterlimit="10"/></g><g transform="translate(-630,-102) scale(1,1)"><rect fill="#ff0000" stroke="none" x="1032" y="126" width="175" height="89"/></g><g transform="translate(-630,-102) scale(1,1)"><path fill="none" stroke="#000000" d="M 1032 126 L 1207 126 L 1207 215 L 1032 215 L 1032 126 Z Z" stroke-miterlimit="10"/></g><g transform="translate(-630,-102) scale(1,1)"><g><path fill="none" stroke="none"/><text fill="#000000" stroke="none" font-family="Arial" font-size="13px" font-style="normal" font-weight="bold" text-decoration="none" x="1098.175048828125" y="146.5">Launch</text></g></g><g transform="translate(-630,-102) scale(1,1)"><path fill="none" stroke="#000000" d="M 1031 186 L 816 243" stroke-miterlimit="10" stroke-dasharray="3"/></g><g transform="translate(-630,-102) scale(1,1)"><path fill="none" stroke="#000000" d="M 824.744568184712 236.32673039186014 L 816 243 L 826.9020576545597 244.46462926935618" stroke-miterlimit="10"/></g><g transform="translate(-630,-102) scale(1,1)"><path fill="none" stroke="#000000" d="M 816 307 L 1175 468" stroke-miterlimit="10" stroke-dasharray="3"/></g><g transform="translate(-630,-102) scale(1,1)"><path fill="none" stroke="#000000" d="M 1164.004587003877 467.6823633448531 L 1175 468 L 1167.4496719413025 460.0004658756871" stroke-miterlimit="10"/></g><g transform="translate(-630,-102) scale(1,1)"><path fill="none" stroke="#000000" d="M 1175 517 L 976 538" stroke-miterlimit="10" stroke-dasharray="3"/></g><g transform="translate(-630,-102) scale(1,1)"><path fill="none" stroke="#000000" d="M 985.6647894357305 532.7472059660605 L 976 538 L 986.5483244303201 541.1197518671703" stroke-miterlimit="10"/></g><g transform="translate(-630,-102) scale(1,1)"><path fill="none" stroke="#000000" d="M 1175 468 L 816 307" stroke-miterlimit="10" stroke-dasharray="3"/></g><g transform="translate(-630,-102) scale(1,1)"><path fill="none" stroke="#000000" d="M 826.9954129961228 307.3176366551469 L 816 307 L 823.5503280586973 314.9995341243129" stroke-miterlimit="10"/></g><g transform="translate(-630,-102) scale(1,1)"><path fill="none" stroke="#000000" d="M 757 320 L 857 495" stroke-miterlimit="10" stroke-dasharray="3"/></g><g transform="translate(-630,-102) scale(1,1)"><path fill="none" stroke="#000000" d="M 848.3030163619607 488.2648329196912 L 857 495 L 855.6127862085847 484.08782157876317" stroke-miterlimit="10"/></g></g></svg>