<svg version="1.1" xmlns="http://www.w3.org/2000/svg" xmlns:xlink="http://www.w3.org/1999/xlink" width="1387" height="1469"><defs/><g><g transform="translate(-102,-14) scale(1,1)"><rect fill="#C0C0C0" stroke="none" x="1215" y="903" width="136" height="87" opacity="0.2"/></g><g transform="translate(-102,-14) scale(1,1)"><rect fill="#ffca2b" stroke="none" x="1208" y="896" width="136" height="87"/></g><g transform="translate(-102,-14) scale(1,1)"><path fill="none" stroke="#000000" d="M 1208 896 L 1344 896 L 1344 983 L 1208 983 L 1208 896 Z Z" stroke-miterlimit="10"/></g><g transform="translate(-102,-14) scale(1,1)"><path fill="none" stroke="#000000" d="M 1208 921 L 1344 921" stroke-miterlimit="10"/></g><g transform="translate(-102,-14) scale(1,1)"><path fill="none" stroke="#000000" d="M 1208 959 L 1344 959" stroke-miterlimit="10"/></g><g transform="translate(-102,-14) scale(1,1)"><g><path fill="none" stroke="none"/><text fill="#000000" stroke="none" font-family="Arial" font-size="13px" font-style="normal" font-weight="bold" text-decoration="none" x="1256.12548828125" y="915.5">Joueur</text></g></g><g transform="translate(-102,-14) scale(1,1)"><g><path fill="none" stroke="none"/><text fill="#000000" stroke="none" font-family="Arial" font-size="13px" font-style="normal" font-weight="normal" text-decoration="none" x="1213" y="938.5">+Pseudo {readOnly}</text></g></g><g transform="translate(-102,-14) scale(1,1)"><g><path fill="none" stroke="none"/><text fill="#000000" stroke="none" font-family="Arial" font-size="13px" font-style="normal" font-weight="normal" text-decoration="none" x="1213" y="953.5">-highScore</text></g></g><g transform="translate(-102,-14) scale(1,1)"><rect fill="#C0C0C0" stroke="none" x="711" y="327" width="211.0458984375" height="310" opacity="0.2"/></g><g transform="translate(-102,-14) scale(1,1)"><rect fill="#00ff00" stroke="none" x="704" y="320" width="211.0458984375" height="310"/></g><g transform="translate(-102,-14) scale(1,1)"><path fill="none" stroke="#000000" d="M 704 320 L 915.0458984375 320 L 915.0458984375 630 L 704 630 L 704 320 Z Z" stroke-miterlimit="10"/></g><g transform="translate(-102,-14) scale(1,1)"><path fill="none" stroke="#000000" d="M 704 345 L 915.0458984375 345" stroke-miterlimit="10"/></g><g transform="translate(-102,-14) scale(1,1)"><path fill="none" stroke="#000000" d="M 704 518 L 915.0458984375 518" stroke-miterlimit="10"/></g><g transform="translate(-102,-14) scale(1,1)"><g><path fill="none" stroke="none"/><text fill="#000000" stroke="none" font-family="Arial" font-size="13px" font-style="normal" font-weight="bold" text-decoration="none" x="760.86181640625" y="339.5">BackgroundView</text></g></g><g transform="translate(-102,-14) scale(1,1)"><g><path fill="none" stroke="none"/><text fill="#000000" stroke="none" font-family="Arial" font-size="13px" font-style="normal" font-weight="normal" text-decoration="none" x="709" y="362.5">+fondEcran: ImageView</text></g></g><g transform="translate(-102,-14) scale(1,1)"><g><path fill="none" stroke="none"/><text fill="#000000" stroke="none" font-family="Arial" font-size="13px" font-style="normal" font-weight="normal" text-decoration="none" x="709" y="377.5">+fondEran2: ImageView</text></g></g><g transform="translate(-102,-14) scale(1,1)"><g><path fill="none" stroke="none"/><text fill="#000000" stroke="none" font-family="Arial" font-size="13px" font-style="normal" font-weight="normal" text-decoration="none" x="709" y="392.5">+chateau: ImageView</text></g></g><g transform="translate(-102,-14) scale(1,1)"><g><path fill="none" stroke="none"/><text fill="#000000" stroke="none" font-family="Arial" font-size="13px" font-style="normal" font-weight="normal" text-decoration="none" x="709" y="407.5">+tuyau: ImageView</text></g></g><g transform="translate(-102,-14) scale(1,1)"><g><path fill="none" stroke="none"/><text fill="#000000" stroke="none" font-family="Arial" font-size="13px" font-style="normal" font-weight="normal" text-decoration="none" x="709" y="422.5">+boom: ImageView</text></g></g><g transform="translate(-102,-14) scale(1,1)"><g><path fill="none" stroke="none"/><text fill="#000000" stroke="none" font-family="Arial" font-size="13px" font-style="normal" font-weight="normal" text-decoration="none" x="709" y="437.5">+t2: Tuyau</text></g></g><g transform="translate(-102,-14) scale(1,1)"><g><path fill="none" stroke="none"/><text fill="#000000" stroke="none" font-family="Arial" font-size="13px" font-style="normal" font-weight="normal" text-decoration="none" x="709" y="452.5">+t3: Tuyau</text></g></g><g transform="translate(-102,-14) scale(1,1)"><g><path fill="none" stroke="none"/><text fill="#000000" stroke="none" font-family="Arial" font-size="13px" font-style="normal" font-weight="normal" text-decoration="none" x="709" y="467.5">+t4: Tuyau</text></g></g><g transform="translate(-102,-14) scale(1,1)"><g><path fill="none" stroke="none"/><text fill="#000000" stroke="none" font-family="Arial" font-size="13px" font-style="normal" font-weight="normal" text-decoration="none" x="709" y="482.5">+buttonReset: Button</text></g></g><g transform="translate(-102,-14) scale(1,1)"><g><path fill="none" stroke="none"/><text fill="#000000" stroke="none" font-family="Arial" font-size="13px" font-style="normal" font-weight="normal" text-decoration="none" x="709" y="497.5">+reset: boolean</text></g></g><g transform="translate(-102,-14) scale(1,1)"><g><path fill="none" stroke="none"/><text fill="#000000" stroke="none" font-family="Arial" font-size="13px" font-style="normal" font-weight="normal" text-decoration="none" x="709" y="512.5">+listeTuyau: List</text></g></g><g transform="translate(-102,-14) scale(1,1)"><g><path fill="none" stroke="none"/><text fill="#000000" stroke="none" font-family="Arial" font-size="13px" font-style="normal" font-weight="normal" text-decoration="none" x="709" y="535.5">+updateBackground()</text></g></g><g transform="translate(-102,-14) scale(1,1)"><g><path fill="none" stroke="none"/><text fill="#000000" stroke="none" font-family="Arial" font-size="13px" font-style="normal" font-weight="normal" text-decoration="none" x="709" y="550.5">+updateTuyau()</text></g></g><g transform="translate(-102,-14) scale(1,1)"><g><path fill="none" stroke="none"/><text fill="#000000" stroke="none" font-family="Arial" font-size="13px" font-style="normal" font-weight="normal" text-decoration="none" x="709" y="565.5">+resetGame()</text></g></g><g transform="translate(-102,-14) scale(1,1)"><g><path fill="none" stroke="none"/><text fill="#000000" stroke="none" font-family="Arial" font-size="13px" font-style="normal" font-weight="normal" text-decoration="none" x="709" y="580.5">+updateChateau()</text></g></g><g transform="translate(-102,-14) scale(1,1)"><g><path fill="none" stroke="none"/><text fill="#000000" stroke="none" font-family="Arial" font-size="13px" font-style="normal" font-weight="normal" text-decoration="none" x="709" y="595.5">+afficheBoom()</text></g></g><g transform="translate(-102,-14) scale(1,1)"><g><path fill="none" stroke="none"/><text fill="#000000" stroke="none" font-family="Arial" font-size="13px" font-style="normal" font-weight="normal" text-decoration="none" x="709" y="610.5">+relanceHighScorePartie()</text></g></g><g transform="translate(-102,-14) scale(1,1)"><rect fill="#C0C0C0" stroke="none" x="439" y="31" width="287" height="102" opacity="0.2"/></g><g transform="translate(-102,-14) scale(1,1)"><rect fill="#ff0000" stroke="none" x="432" y="24" width="287" height="102"/></g><g transform="translate(-102,-14) scale(1,1)"><path fill="none" stroke="#000000" d="M 432 24 L 719 24 L 719 126 L 432 126 L 432 24 Z Z" stroke-miterlimit="10"/></g><g transform="translate(-102,-14) scale(1,1)"><path fill="none" stroke="#000000" d="M 432 49 L 719 49" stroke-miterlimit="10"/></g><g transform="translate(-102,-14) scale(1,1)"><path fill="none" stroke="#000000" d="M 432 59 L 719 59" stroke-miterlimit="10"/></g><g transform="translate(-102,-14) scale(1,1)"><g><path fill="none" stroke="none"/><text fill="#000000" stroke="none" font-family="Arial" font-size="13px" font-style="normal" font-weight="bold" text-decoration="none" x="554.175048828125" y="43.5">Launch</text></g></g><g transform="translate(-102,-14) scale(1,1)"><g><path fill="none" stroke="none"/><text fill="#000000" stroke="none" font-family="Arial" font-size="13px" font-style="normal" font-weight="normal" text-decoration="none" x="437" y="76.5">+start(stage: Stage)</text></g></g><g transform="translate(-102,-14) scale(1,1)"><rect fill="#C0C0C0" stroke="none" x="1047" y="343" width="154.2724609375" height="102" opacity="0.2"/></g><g transform="translate(-102,-14) scale(1,1)"><rect fill="#38bcff" stroke="none" x="1040" y="336" width="154.2724609375" height="102"/></g><g transform="translate(-102,-14) scale(1,1)"><path fill="none" stroke="#000000" d="M 1040 336 L 1194.2724609375 336 L 1194.2724609375 438 L 1040 438 L 1040 336 Z Z" stroke-miterlimit="10"/></g><g transform="translate(-102,-14) scale(1,1)"><path fill="none" stroke="#000000" d="M 1040 361 L 1194.2724609375 361" stroke-miterlimit="10"/></g><g transform="translate(-102,-14) scale(1,1)"><path fill="none" stroke="#000000" d="M 1040 429 L 1194.2724609375 429" stroke-miterlimit="10"/></g><g transform="translate(-102,-14) scale(1,1)"><g><path fill="none" stroke="none"/><text fill="#000000" stroke="none" font-family="Arial" font-size="13px" font-style="normal" font-weight="bold" text-decoration="none" x="1084.975830078125" y="355.5">GameLoop</text></g></g><g transform="translate(-102,-14) scale(1,1)"><g><path fill="none" stroke="none"/><text fill="#000000" stroke="none" font-family="Arial" font-size="13px" font-style="normal" font-weight="normal" text-decoration="none" x="1045" y="378.5">-i: int = 0</text></g></g><g transform="translate(-102,-14) scale(1,1)"><g><path fill="none" stroke="none"/><text fill="#000000" stroke="none" font-family="Arial" font-size="13px" font-style="normal" font-weight="normal" text-decoration="none" x="1045" y="393.5">+contact: boolean = false</text></g></g><g transform="translate(-102,-14) scale(1,1)"><g><path fill="none" stroke="none"/><text fill="#000000" stroke="none" font-family="Arial" font-size="13px" font-style="normal" font-weight="normal" text-decoration="none" x="1045" y="408.5">+reset: boolean = false</text></g></g><g transform="translate(-102,-14) scale(1,1)"><g><path fill="none" stroke="none"/><text fill="#000000" stroke="none" font-family="Arial" font-size="13px" font-style="normal" font-weight="normal" text-decoration="none" x="1045" y="423.5">+stade: int = 0</text></g></g><g transform="translate(-102,-14) scale(1,1)"><path fill="none" stroke="#000000" d="M 1039 409 L 916 444" stroke-miterlimit="10"/></g><g transform="translate(-102,-14) scale(1,1)"><path fill="none" stroke="#000000" d="M 924.6225531597607 437.16980402864607 L 916 444 L 926.9267436985857 445.2673879222309" stroke-miterlimit="10"/></g><g transform="translate(-102,-14) scale(1,1)"><g><path fill="none" stroke="none"/><text fill="#000000" stroke="none" font-family="Arial" font-size="13px" font-style="normal" font-weight="normal" text-decoration="none" x="973.614990234375" y="446.5">+b</text></g></g><g transform="translate(-102,-14) scale(1,1)"><path fill="none" stroke="#000000" d="M 577 127 L 579 167" stroke-miterlimit="10"/></g><g transform="translate(-102,-14) scale(1,1)"><path fill="#ffffff" stroke="none" d="M 208 112 L 370.3671875 112 L 380.3671875 122 L 380.3671875 148 L 208 148 L 208 112"/></g><g transform="translate(-102,-14) scale(1,1)"><path fill="none" stroke="#000000" d="M 208 112 L 370.3671875 112 L 380.3671875 122 L 380.3671875 148 L 208 148 L 208 112 L 208 112" stroke-miterlimit="10"/></g><g transform="translate(-102,-14) scale(1,1)"><path fill="none" stroke="#000000" d="M 370.3671875 112 L 370.3671875 122 L 380.3671875 122 L 370.3671875 112" stroke-miterlimit="10"/></g><g transform="translate(-102,-14) scale(1,1)"><g><path fill="none" stroke="none"/><text fill="#000000" stroke="none" font-family="Arial" font-size="13px" font-style="normal" font-weight="normal" text-decoration="none" x="213" y="130">Un Launch a une seule</text><text fill="#000000" stroke="none" font-family="Arial" font-size="13px" font-style="normal" font-weight="normal" text-decoration="none" x="213" y="143">partie à gérer</text></g></g><g transform="translate(-102,-14) scale(1,1)"><path fill="none" stroke="#000000" d="M 578 147 L 382 135" stroke-miterlimit="10" stroke-dasharray="3"/></g><g transform="translate(-102,-14) scale(1,1)"><rect fill="#C0C0C0" stroke="none" x="439" y="511" width="174.09619140625" height="207" opacity="0.2"/></g><g transform="translate(-102,-14) scale(1,1)"><rect fill="#ffca2b" stroke="none" x="432" y="504" width="174.09619140625" height="207"/></g><g transform="translate(-102,-14) scale(1,1)"><path fill="none" stroke="#000000" d="M 432 504 L 606.09619140625 504 L 606.09619140625 711 L 432 711 L 432 504 Z Z" stroke-miterlimit="10"/></g><g transform="translate(-102,-14) scale(1,1)"><path fill="none" stroke="#000000" d="M 432 529 L 606.09619140625 529" stroke-miterlimit="10"/></g><g transform="translate(-102,-14) scale(1,1)"><path fill="none" stroke="#000000" d="M 432 597 L 606.09619140625 597" stroke-miterlimit="10"/></g><g transform="translate(-102,-14) scale(1,1)"><g><path fill="none" stroke="none"/><text fill="#000000" stroke="none" font-family="Arial" font-size="13px" font-style="normal" font-weight="bold" text-decoration="none" x="495.203125" y="523.5">Element</text></g></g><g transform="translate(-102,-14) scale(1,1)"><g><path fill="none" stroke="none"/><text fill="#000000" stroke="none" font-family="Arial" font-size="13px" font-style="normal" font-weight="normal" text-decoration="none" x="437" y="546.5">-largeur: double</text></g></g><g transform="translate(-102,-14) scale(1,1)"><g><path fill="none" stroke="none"/><text fill="#000000" stroke="none" font-family="Arial" font-size="13px" font-style="normal" font-weight="normal" text-decoration="none" x="437" y="561.5">-hauteur: double</text></g></g><g transform="translate(-102,-14) scale(1,1)"><g><path fill="none" stroke="none"/><text fill="#000000" stroke="none" font-family="Arial" font-size="13px" font-style="normal" font-weight="normal" text-decoration="none" x="437" y="576.5">-x: SimpleDoubleProperty</text></g></g><g transform="translate(-102,-14) scale(1,1)"><g><path fill="none" stroke="none"/><text fill="#000000" stroke="none" font-family="Arial" font-size="13px" font-style="normal" font-weight="normal" text-decoration="none" x="437" y="591.5">-y: SimpleDoubleProperty</text></g></g><g transform="translate(-102,-14) scale(1,1)"><g><path fill="none" stroke="none"/><text fill="#000000" stroke="none" font-family="Arial" font-size="13px" font-style="normal" font-weight="normal" text-decoration="none" x="437" y="614.5">+remisAZero(valeur: double)</text></g></g><g transform="translate(-102,-14) scale(1,1)"><g><path fill="none" stroke="none"/><text fill="#000000" stroke="none" font-family="Arial" font-size="13px" font-style="normal" font-weight="normal" text-decoration="none" x="437" y="629.5">+avance()</text></g></g><g transform="translate(-102,-14) scale(1,1)"><rect fill="#C0C0C0" stroke="none" x="311" y="823" width="224.439453125" height="152" opacity="0.2"/></g><g transform="translate(-102,-14) scale(1,1)"><rect fill="#ffca2b" stroke="none" x="304" y="816" width="224.439453125" height="152"/></g><g transform="translate(-102,-14) scale(1,1)"><path fill="none" stroke="#000000" d="M 304 816 L 528.439453125 816 L 528.439453125 968 L 304 968 L 304 816 Z Z" stroke-miterlimit="10"/></g><g transform="translate(-102,-14) scale(1,1)"><path fill="none" stroke="#000000" d="M 304 841 L 528.439453125 841" stroke-miterlimit="10"/></g><g transform="translate(-102,-14) scale(1,1)"><path fill="none" stroke="#000000" d="M 304 909 L 528.439453125 909" stroke-miterlimit="10"/></g><g transform="translate(-102,-14) scale(1,1)"><g><path fill="none" stroke="none"/><text fill="#000000" stroke="none" font-family="Arial" font-size="13px" font-style="normal" font-weight="bold" text-decoration="none" x="394.545654296875" y="835.5">Jumper</text></g></g><g transform="translate(-102,-14) scale(1,1)"><g><path fill="none" stroke="none"/><text fill="#000000" stroke="none" font-family="Arial" font-size="13px" font-style="normal" font-weight="normal" text-decoration="none" x="309" y="858.5">-EstEntrainDeSauter: boolean = false</text></g></g><g transform="translate(-102,-14) scale(1,1)"><g><path fill="none" stroke="none"/><text fill="#000000" stroke="none" font-family="Arial" font-size="13px" font-style="normal" font-weight="normal" text-decoration="none" x="309" y="873.5">-hauteurMax: boolean = false</text></g></g><g transform="translate(-102,-14) scale(1,1)"><g><path fill="none" stroke="none"/><text fill="#000000" stroke="none" font-family="Arial" font-size="13px" font-style="normal" font-weight="normal" text-decoration="none" x="309" y="888.5">-hauteurMin = false</text></g></g><g transform="translate(-102,-14) scale(1,1)"><g><path fill="none" stroke="none"/><text fill="#000000" stroke="none" font-family="Arial" font-size="13px" font-style="normal" font-weight="normal" text-decoration="none" x="309" y="903.5">-velocityY: double = 0</text></g></g><g transform="translate(-102,-14) scale(1,1)"><g><path fill="none" stroke="none"/><text fill="#000000" stroke="none" font-family="Arial" font-size="13px" font-style="normal" font-weight="normal" text-decoration="none" x="309" y="926.5">+contactTuyau(t: Tuyau): boolean</text></g></g><g transform="translate(-102,-14) scale(1,1)"><g><path fill="none" stroke="none"/><text fill="#000000" stroke="none" font-family="Arial" font-size="13px" font-style="normal" font-weight="normal" text-decoration="none" x="309" y="941.5">+calculCoordonnee()</text></g></g><g transform="translate(-102,-14) scale(1,1)"><g><path fill="none" stroke="none"/><text fill="#000000" stroke="none" font-family="Arial" font-size="13px" font-style="normal" font-weight="normal" text-decoration="none" x="309" y="956.5">+sautDebut()</text></g></g><g transform="translate(-102,-14) scale(1,1)"><path fill="none" stroke="#000000" d="M 444 815 L 481 712" stroke-miterlimit="10"/></g><g transform="translate(-102,-14) scale(1,1)"><path fill="#FFFFFF" stroke="none" d="M 482.05188649964515 733.9748386749907 L 481 712 L 466.20523863437137 728.2823535195039"/></g><g transform="translate(-102,-14) scale(1,1)"><path fill="none" stroke="#000000" d="M 482.05188649964515 733.9748386749907 L 481 712 L 466.20523863437137 728.2823535195039 L 482.05188649964515 733.9748386749907" stroke-miterlimit="10"/></g><g transform="translate(-102,-14) scale(1,1)"><rect fill="#C0C0C0" stroke="none" x="687" y="743" width="127" height="88" opacity="0.2"/></g><g transform="translate(-102,-14) scale(1,1)"><rect fill="#ffca2b" stroke="none" x="680" y="736" width="127" height="88"/></g><g transform="translate(-102,-14) scale(1,1)"><path fill="none" stroke="#000000" d="M 680 736 L 807 736 L 807 824 L 680 824 L 680 736 Z Z" stroke-miterlimit="10"/></g><g transform="translate(-102,-14) scale(1,1)"><path fill="none" stroke="#000000" d="M 680 761 L 807 761" stroke-miterlimit="10"/></g><g transform="translate(-102,-14) scale(1,1)"><path fill="none" stroke="#000000" d="M 680 771 L 807 771" stroke-miterlimit="10"/></g><g transform="translate(-102,-14) scale(1,1)"><g><path fill="none" stroke="none"/><text fill="#000000" stroke="none" font-family="Arial" font-size="13px" font-style="normal" font-weight="bold" text-decoration="none" x="725.67578125" y="755.5">Tuyau</text></g></g><g transform="translate(-102,-14) scale(1,1)"><path fill="none" stroke="#000000" d="M 685 735 L 607 675" stroke-miterlimit="10"/></g><g transform="translate(-102,-14) scale(1,1)"><path fill="#FFFFFF" stroke="none" d="M 628.2435363189078 680.7194549274601 L 607 675 L 617.9771832235846 694.0657139513802"/></g><g transform="translate(-102,-14) scale(1,1)"><path fill="none" stroke="#000000" d="M 628.2435363189078 680.7194549274601 L 607 675 L 617.9771832235846 694.0657139513802 L 628.2435363189078 680.7194549274601" stroke-miterlimit="10"/></g><g transform="translate(-102,-14) scale(1,1)"><rect fill="#C0C0C0" stroke="none" x="735" y="951" width="151" height="88" opacity="0.2"/></g><g transform="translate(-102,-14) scale(1,1)"><rect fill="#ffca2b" stroke="none" x="728" y="944" width="151" height="88"/></g><g transform="translate(-102,-14) scale(1,1)"><path fill="none" stroke="#000000" d="M 728 944 L 879 944 L 879 1032 L 728 1032 L 728 944 Z Z" stroke-miterlimit="10"/></g><g transform="translate(-102,-14) scale(1,1)"><path fill="none" stroke="#000000" d="M 728 969 L 879 969" stroke-miterlimit="10"/></g><g transform="translate(-102,-14) scale(1,1)"><path fill="none" stroke="#000000" d="M 728 992 L 879 992" stroke-miterlimit="10"/></g><g transform="translate(-102,-14) scale(1,1)"><g><path fill="none" stroke="none"/><text fill="#000000" stroke="none" font-family="Arial" font-size="13px" font-style="normal" font-weight="bold" text-decoration="none" x="786.52001953125" y="963.5">Score</text></g></g><g transform="translate(-102,-14) scale(1,1)"><g><path fill="none" stroke="none"/><text fill="#000000" stroke="none" font-family="Arial" font-size="13px" font-style="normal" font-weight="normal" text-decoration="none" x="733" y="986.5">-nbPoints: int</text></g></g><g transform="translate(-102,-14) scale(1,1)"><g><path fill="none" stroke="none"/><text fill="#000000" stroke="none" font-family="Arial" font-size="13px" font-style="normal" font-weight="normal" text-decoration="none" x="733" y="1009.5">+addPoints()</text></g></g><g transform="translate(-102,-14) scale(1,1)"><g><path fill="none" stroke="none"/><text fill="#000000" stroke="none" font-family="Arial" font-size="13px" font-style="normal" font-weight="normal" text-decoration="none" x="733" y="1024.5">+remisAZero()</text></g></g><g transform="translate(-102,-14) scale(1,1)"><rect fill="#C0C0C0" stroke="none" x="487" y="175" width="203.01611328125" height="120" opacity="0.2"/></g><g transform="translate(-102,-14) scale(1,1)"><rect fill="#00ff00" stroke="none" x="480" y="168" width="203.01611328125" height="120"/></g><g transform="translate(-102,-14) scale(1,1)"><path fill="none" stroke="#000000" d="M 480 168 L 683.01611328125 168 L 683.01611328125 288 L 480 288 L 480 168 Z Z" stroke-miterlimit="10"/></g><g transform="translate(-102,-14) scale(1,1)"><path fill="none" stroke="#000000" d="M 480 193 L 683.01611328125 193" stroke-miterlimit="10"/></g><g transform="translate(-102,-14) scale(1,1)"><path fill="none" stroke="#000000" d="M 480 231 L 683.01611328125 231" stroke-miterlimit="10"/></g><g transform="translate(-102,-14) scale(1,1)"><g><path fill="none" stroke="none"/><text fill="#000000" stroke="none" font-family="Arial" font-size="13px" font-style="normal" font-weight="bold" text-decoration="none" x="560.554443359375" y="187.5">Accueil</text></g></g><g transform="translate(-102,-14) scale(1,1)"><g><path fill="none" stroke="none"/><text fill="#000000" stroke="none" font-family="Arial" font-size="13px" font-style="normal" font-weight="normal" text-decoration="none" x="485" y="210.5">-field: TextField</text></g></g><g transform="translate(-102,-14) scale(1,1)"><g><path fill="none" stroke="none"/><text fill="#000000" stroke="none" font-family="Arial" font-size="13px" font-style="normal" font-weight="normal" text-decoration="none" x="485" y="225.5">+titre: Text</text></g></g><g transform="translate(-102,-14) scale(1,1)"><g><path fill="none" stroke="none"/><text fill="#000000" stroke="none" font-family="Arial" font-size="13px" font-style="normal" font-weight="normal" text-decoration="none" x="485" y="248.5">+LancerPartie(textPseudo: string)</text></g></g><g transform="translate(-102,-14) scale(1,1)"><path fill="none" stroke="#000000" d="M 703 360 L 637 289" stroke-miterlimit="10"/></g><g transform="translate(-102,-14) scale(1,1)"><rect fill="#C0C0C0" stroke="none" x="935" y="591" width="159" height="191" opacity="0.2"/></g><g transform="translate(-102,-14) scale(1,1)"><rect fill="#00ff00" stroke="none" x="928" y="584" width="159" height="191"/></g><g transform="translate(-102,-14) scale(1,1)"><path fill="none" stroke="#000000" d="M 928 584 L 1087 584 L 1087 775 L 928 775 L 928 584 Z Z" stroke-miterlimit="10"/></g><g transform="translate(-102,-14) scale(1,1)"><path fill="none" stroke="#000000" d="M 928 609 L 1087 609" stroke-miterlimit="10"/></g><g transform="translate(-102,-14) scale(1,1)"><path fill="none" stroke="#000000" d="M 928 632 L 1087 632" stroke-miterlimit="10"/></g><g transform="translate(-102,-14) scale(1,1)"><g><path fill="none" stroke="none"/><text fill="#000000" stroke="none" font-family="Arial" font-size="13px" font-style="normal" font-weight="bold" text-decoration="none" x="971.854736328125" y="603.5">JumperView</text></g></g><g transform="translate(-102,-14) scale(1,1)"><g><path fill="none" stroke="none"/><text fill="#000000" stroke="none" font-family="Arial" font-size="13px" font-style="normal" font-weight="normal" text-decoration="none" x="933" y="626.5">+jumper: ImageView</text></g></g><g transform="translate(-102,-14) scale(1,1)"><g><path fill="none" stroke="none"/><text fill="#000000" stroke="none" font-family="Arial" font-size="13px" font-style="normal" font-weight="normal" text-decoration="none" x="933" y="649.5">+resetJumper()</text></g></g><g transform="translate(-102,-14) scale(1,1)"><path fill="none" stroke="#000000" d="M 1097 439 L 1043 583" stroke-miterlimit="10"/></g><g transform="translate(-102,-14) scale(1,1)"><path fill="none" stroke="#000000" d="M 1042.6268590733 572.0063306467393 L 1043 583 L 1050.5098476702055 574.962451370579" stroke-miterlimit="10"/></g><g transform="translate(-102,-14) scale(1,1)"><g><path fill="none" stroke="none"/><text fill="#000000" stroke="none" font-family="Arial" font-size="13px" font-style="normal" font-weight="normal" text-decoration="none" x="1013.5" y="538.5">+jView</text></g></g><g transform="translate(-102,-14) scale(1,1)"><rect fill="#C0C0C0" stroke="none" x="1199" y="615" width="167" height="215" opacity="0.2"/></g><g transform="translate(-102,-14) scale(1,1)"><rect fill="#00ff00" stroke="none" x="1192" y="608" width="167" height="215"/></g><g transform="translate(-102,-14) scale(1,1)"><path fill="none" stroke="#000000" d="M 1192 608 L 1359 608 L 1359 823 L 1192 823 L 1192 608 Z Z" stroke-miterlimit="10"/></g><g transform="translate(-102,-14) scale(1,1)"><path fill="none" stroke="#000000" d="M 1192 633 L 1359 633" stroke-miterlimit="10"/></g><g transform="translate(-102,-14) scale(1,1)"><path fill="none" stroke="#000000" d="M 1192 656 L 1359 656" stroke-miterlimit="10"/></g><g transform="translate(-102,-14) scale(1,1)"><g><path fill="none" stroke="none"/><text fill="#000000" stroke="none" font-family="Arial" font-size="13px" font-style="normal" font-weight="bold" text-decoration="none" x="1239.4833984375" y="627.5">PseudoView</text></g></g><g transform="translate(-102,-14) scale(1,1)"><g><path fill="none" stroke="none"/><text fill="#000000" stroke="none" font-family="Arial" font-size="13px" font-style="normal" font-weight="normal" text-decoration="none" x="1197" y="650.5">+joueur: Text</text></g></g><g transform="translate(-102,-14) scale(1,1)"><g><path fill="none" stroke="none"/><text fill="#000000" stroke="none" font-family="Arial" font-size="13px" font-style="normal" font-weight="normal" text-decoration="none" x="1197" y="673.5">+highScore(sc: int)</text></g></g><g transform="translate(-102,-14) scale(1,1)"><path fill="none" stroke="#000000" d="M 775 631 L 753 735" stroke-miterlimit="10"/></g><g transform="translate(-102,-14) scale(1,1)"><path fill="none" stroke="#000000" d="M 750.984872422904 724.1861542063876 L 753 735 L 759.2216333166483 725.9285459339105" stroke-miterlimit="10"/></g><g transform="translate(-102,-14) scale(1,1)"><g><path fill="none" stroke="none"/><text fill="#000000" stroke="none" font-family="Arial" font-size="13px" font-style="normal" font-weight="normal" text-decoration="none" x="759.5" y="731.5">+t</text></g></g><g transform="translate(-102,-14) scale(1,1)"><path fill="none" stroke="#000000" d="M 1007 776 L 1008 896 L 529 893" stroke-miterlimit="10"/></g><g transform="translate(-102,-14) scale(1,1)"><path fill="none" stroke="#000000" d="M 539.1888394388783 888.8542128746452 L 529 893 L 539.136111649346 897.2730832699575" stroke-miterlimit="10"/></g><g transform="translate(-102,-14) scale(1,1)"><g><path fill="none" stroke="none"/><text fill="#000000" stroke="none" font-family="Arial" font-size="13px" font-style="normal" font-weight="normal" text-decoration="none" x="573.5" y="918.5">+joueur</text></g></g><g transform="translate(-102,-14) scale(1,1)"><path fill="none" stroke="#000000" d="M 1275 824 L 1276 895" stroke-miterlimit="10"/></g><g transform="translate(-102,-14) scale(1,1)"><path fill="none" stroke="#000000" d="M 1271.6477776394172 884.8976160969777 L 1276 895 L 1280.0659782195771 884.7790498916233" stroke-miterlimit="10"/></g><g transform="translate(-102,-14) scale(1,1)"><g><path fill="none" stroke="none"/><text fill="#000000" stroke="none" font-family="Arial" font-size="13px" font-style="normal" font-weight="normal" text-decoration="none" x="421.731689453125" y="1003.5">+j</text></g></g><g transform="translate(-102,-14) scale(1,1)"><g><path fill="none" stroke="none"/><text fill="#000000" stroke="none" font-family="Arial" font-size="13px" font-style="normal" font-weight="normal" text-decoration="none" x="1285.731689453125" y="883.5">+j</text></g></g><g transform="translate(-102,-14) scale(1,1)"><path fill="none" stroke="#000000" d="M 1142 439 L 1223 607" stroke-miterlimit="10"/></g><g transform="translate(-102,-14) scale(1,1)"><path fill="none" stroke="#000000" d="M 1214.794556826921 599.6739709027761 L 1223 607 L 1222.3781603434918 596.017590635858" stroke-miterlimit="10"/></g><g transform="translate(-102,-14) scale(1,1)"><g><path fill="none" stroke="none"/><text fill="#000000" stroke="none" font-family="Arial" font-size="13px" font-style="normal" font-weight="normal" text-decoration="none" x="1222.5" y="578.5">+pv</text></g></g><g transform="translate(-102,-14) scale(1,1)"><rect fill="#C0C0C0" stroke="none" x="1343" y="351" width="143" height="215" opacity="0.2"/></g><g transform="translate(-102,-14) scale(1,1)"><rect fill="#00ff00" stroke="none" x="1336" y="344" width="143" height="215"/></g><g transform="translate(-102,-14) scale(1,1)"><path fill="none" stroke="#000000" d="M 1336 344 L 1479 344 L 1479 559 L 1336 559 L 1336 344 Z Z" stroke-miterlimit="10"/></g><g transform="translate(-102,-14) scale(1,1)"><path fill="none" stroke="#000000" d="M 1336 369 L 1479 369" stroke-miterlimit="10"/></g><g transform="translate(-102,-14) scale(1,1)"><path fill="none" stroke="#000000" d="M 1336 437 L 1479 437" stroke-miterlimit="10"/></g><g transform="translate(-102,-14) scale(1,1)"><g><path fill="none" stroke="none"/><text fill="#000000" stroke="none" font-family="Arial" font-size="13px" font-style="normal" font-weight="bold" text-decoration="none" x="1376.548828125" y="363.5">ScoreView</text></g></g><g transform="translate(-102,-14) scale(1,1)"><g><path fill="none" stroke="none"/><text fill="#000000" stroke="none" font-family="Arial" font-size="13px" font-style="normal" font-weight="normal" text-decoration="none" x="1341" y="386.5">+highScore: Score</text></g></g><g transform="translate(-102,-14) scale(1,1)"><g><path fill="none" stroke="none"/><text fill="#000000" stroke="none" font-family="Arial" font-size="13px" font-style="normal" font-weight="normal" text-decoration="none" x="1341" y="401.5">+textScore: Text</text></g></g><g transform="translate(-102,-14) scale(1,1)"><g><path fill="none" stroke="none"/><text fill="#000000" stroke="none" font-family="Arial" font-size="13px" font-style="normal" font-weight="normal" text-decoration="none" x="1341" y="416.5">+texthighScore: Text</text></g></g><g transform="translate(-102,-14) scale(1,1)"><g><path fill="none" stroke="none"/><text fill="#000000" stroke="none" font-family="Arial" font-size="13px" font-style="normal" font-weight="normal" text-decoration="none" x="1341" y="431.5">+finPartie: Text</text></g></g><g transform="translate(-102,-14) scale(1,1)"><g><path fill="none" stroke="none"/><text fill="#000000" stroke="none" font-family="Arial" font-size="13px" font-style="normal" font-weight="normal" text-decoration="none" x="1341" y="454.5">+updatePoint()</text></g></g><g transform="translate(-102,-14) scale(1,1)"><g><path fill="none" stroke="none"/><text fill="#000000" stroke="none" font-family="Arial" font-size="13px" font-style="normal" font-weight="normal" text-decoration="none" x="1341" y="469.5">+ajoutFinPartie()</text></g></g><g transform="translate(-102,-14) scale(1,1)"><g><path fill="none" stroke="none"/><text fill="#000000" stroke="none" font-family="Arial" font-size="13px" font-style="normal" font-weight="normal" text-decoration="none" x="1341" y="484.5">+addPoint()</text></g></g><g transform="translate(-102,-14) scale(1,1)"><g><path fill="none" stroke="none"/><text fill="#000000" stroke="none" font-family="Arial" font-size="13px" font-style="normal" font-weight="normal" text-decoration="none" x="1341" y="499.5">+resetScore()</text></g></g><g transform="translate(-102,-14) scale(1,1)"><g><path fill="none" stroke="none"/><text fill="#000000" stroke="none" font-family="Arial" font-size="13px" font-style="normal" font-weight="normal" text-decoration="none" x="1341" y="514.5">+verifHighScore()</text></g></g><g transform="translate(-102,-14) scale(1,1)"><path fill="none" stroke="#000000" d="M 1406 560 L 1400 1000 L 880 990" stroke-miterlimit="10"/></g><g transform="translate(-102,-14) scale(1,1)"><path fill="none" stroke="#000000" d="M 890.2417334855588 985.9866603419617 L 880 990 L 890.0798588861477 994.4041395113403" stroke-miterlimit="10"/></g><g transform="translate(-102,-14) scale(1,1)"><g><path fill="none" stroke="none"/><text fill="#000000" stroke="none" font-family="Arial" font-size="13px" font-style="normal" font-weight="normal" text-decoration="none" x="918.5" y="1012.5">+score</text></g></g><g transform="translate(-102,-14) scale(1,1)"><path fill="none" stroke="#000000" d="M 1195 404 L 1335 435" stroke-miterlimit="10"/></g><g transform="translate(-102,-14) scale(1,1)"><path fill="none" stroke="#000000" d="M 1324.167599550934 436.9128775473296 L 1335 435 L 1325.987727500641 428.6929448712335" stroke-miterlimit="10"/></g><g transform="translate(-102,-14) scale(1,1)"><g><path fill="none" stroke="none"/><text fill="#000000" stroke="none" font-family="Arial" font-size="13px" font-style="normal" font-weight="normal" text-decoration="none" x="1291.5" y="451.5">+sc</text></g></g><g transform="translate(-102,-14) scale(1,1)"><path fill="none" stroke="#000000" d="M 1115 439 L 1096 928 L 624 928 L 624 1008 L 416 1008 L 416 969" stroke-miterlimit="10"/></g><g transform="translate(-102,-14) scale(1,1)"><path fill="none" stroke="#000000" d="M 420.209517756016 979.1626748576241 L 416 969 L 411.790482243984 979.1626748576241" stroke-miterlimit="10"/></g><g transform="translate(-102,-14) scale(1,1)"><g><path fill="none" stroke="none"/><text fill="#000000" stroke="none" font-family="Arial" font-size="13px" font-style="normal" font-weight="normal" text-decoration="none" x="804.731689453125" y="1473.5">+j</text></g></g><g transform="translate(-102,-14) scale(1,1)"><rect fill="#C0C0C0" stroke="none" x="143" y="535" width="143" height="175" opacity="0.2"/></g><g transform="translate(-102,-14) scale(1,1)"><rect fill="#ff0000" stroke="none" x="136" y="528" width="143" height="175"/></g><g transform="translate(-102,-14) scale(1,1)"><path fill="none" stroke="#000000" d="M 136 528 L 279 528 L 279 703 L 136 703 L 136 528 Z Z" stroke-miterlimit="10"/></g><g transform="translate(-102,-14) scale(1,1)"><path fill="none" stroke="#000000" d="M 136 553 L 279 553" stroke-miterlimit="10"/></g><g transform="translate(-102,-14) scale(1,1)"><path fill="none" stroke="#000000" d="M 136 576 L 279 576" stroke-miterlimit="10"/></g><g transform="translate(-102,-14) scale(1,1)"><g><path fill="none" stroke="none"/><text fill="#000000" stroke="none" font-family="Arial" font-size="13px" font-style="normal" font-weight="bold" text-decoration="none" x="181.484130859375" y="547.5">Constant</text></g></g><g transform="translate(-102,-14) scale(1,1)"><g><path fill="none" stroke="none"/><text fill="#000000" stroke="none" font-family="Arial" font-size="13px" font-style="normal" font-weight="normal" text-decoration="none" x="141" y="570.5">+GRAVITY: double = 1</text><path fill="none" stroke="#000000" d="M 141 570.5 L 272.2822265625 570.5" stroke-miterlimit="10"/></g></g><g transform="translate(-102,-14) scale(1,1)"><path fill="none" stroke="#000000" d="M 303 855 L 208 824 L 207 704" stroke-miterlimit="10"/></g><g transform="translate(-102,-14) scale(1,1)"><path fill="none" stroke="#000000" d="M 211.2940576165285 714.1272439086819 L 207 704 L 202.87531441689396 714.1974001020121" stroke-miterlimit="10"/></g><g transform="translate(-102,-14) scale(1,1)"><g><path fill="none" stroke="none"/><text fill="#000000" stroke="none" font-family="Arial" font-size="13px" font-style="normal" font-weight="normal" text-decoration="none" x="213.728515625" y="731.5">+GRAVITY</text></g></g><g transform="translate(-102,-14) scale(1,1)"><path fill="none" stroke="#000000" d="M 684 229 L 1120 232 L 1118 335" stroke-miterlimit="10"/></g><g transform="translate(-102,-14) scale(1,1)"><path fill="none" stroke="#000000" d="M 684 228 L 1408 232 L 1407 343" stroke-miterlimit="10"/></g><g transform="translate(-102,-14) scale(1,1)"><rect fill="#C0C0C0" stroke="none" x="199" y="311" width="156.0498046875" height="119" opacity="0.2"/></g><g transform="translate(-102,-14) scale(1,1)"><rect fill="#ffca2b" stroke="none" x="192" y="304" width="156.0498046875" height="119"/></g><g transform="translate(-102,-14) scale(1,1)"><path fill="none" stroke="#000000" d="M 192 304 L 348.0498046875 304 L 348.0498046875 423 L 192 423 L 192 304 Z Z" stroke-miterlimit="10"/></g><g transform="translate(-102,-14) scale(1,1)"><path fill="none" stroke="#000000" d="M 192 329 L 348.0498046875 329" stroke-miterlimit="10"/></g><g transform="translate(-102,-14) scale(1,1)"><path fill="none" stroke="#000000" d="M 192 352 L 348.0498046875 352" stroke-miterlimit="10"/></g><g transform="translate(-102,-14) scale(1,1)"><g><path fill="none" stroke="none"/><text fill="#000000" stroke="none" font-family="Arial" font-size="13px" font-style="normal" font-weight="bold" text-decoration="none" x="253.400390625" y="323.5">Audio</text></g></g><g transform="translate(-102,-14) scale(1,1)"><g><path fill="none" stroke="none"/><text fill="#000000" stroke="none" font-family="Arial" font-size="13px" font-style="normal" font-weight="normal" text-decoration="none" x="197" y="346.5">-clip: Clip</text></g></g><g transform="translate(-102,-14) scale(1,1)"><g><path fill="none" stroke="none"/><text fill="#000000" stroke="none" font-family="Arial" font-size="13px" font-style="normal" font-weight="normal" text-decoration="none" x="197" y="369.5">+play()</text></g></g><g transform="translate(-102,-14) scale(1,1)"><g><path fill="none" stroke="none"/><text fill="#000000" stroke="none" font-family="Arial" font-size="13px" font-style="normal" font-weight="normal" text-decoration="none" x="197" y="384.5">+stop()</text></g></g><g transform="translate(-102,-14) scale(1,1)"><g><path fill="none" stroke="none"/><text fill="#000000" stroke="none" font-family="Arial" font-size="13px" font-style="normal" font-weight="normal" text-decoration="none" x="197" y="399.5">+playSound()</text></g></g><g transform="translate(-102,-14) scale(1,1)"><path fill="none" stroke="#000000" d="M 598 289 L 704 680 L 927 679" stroke-miterlimit="10"/></g><g transform="translate(-102,-14) scale(1,1)"><path fill="none" stroke="#000000" d="M 916.8563038928463 683.2550475068695 L 927 679 L 916.8185507499578 674.8360966427144" stroke-miterlimit="10"/></g><g transform="translate(-102,-14) scale(1,1)"><g><path fill="none" stroke="none"/><text fill="#000000" stroke="none" font-family="Arial" font-size="13px" font-style="normal" font-weight="normal" text-decoration="none" x="847.13134765625" y="671.5">-jView</text></g></g><g transform="translate(-102,-14) scale(1,1)"><path fill="none" stroke="#000000" d="M 479 272 L 349 329" stroke-miterlimit="10"/></g><g transform="translate(-102,-14) scale(1,1)"><path fill="none" stroke="#000000" d="M 356.6169549169115 321.0638801802305 L 349 329 L 359.99768461460826 328.77431633287233" stroke-miterlimit="10"/></g><g transform="translate(-102,-14) scale(1,1)"><g><path fill="none" stroke="none"/><text fill="#000000" stroke="none" font-family="Arial" font-size="13px" font-style="normal" font-weight="normal" text-decoration="none" x="412.5" y="319.5">+a</text></g></g><g transform="translate(-102,-14) scale(1,1)"><path fill="none" stroke="#000000" d="M 479 229 L 112 232 L 112 888 L 303 891" stroke-miterlimit="10"/></g><g transform="translate(-102,-14) scale(1,1)"><path fill="none" stroke="#000000" d="M 292.77246856988666 895.049395121008 L 303 891 L 292.9046884211998 886.6313979207368" stroke-miterlimit="10"/></g><g transform="translate(-102,-14) scale(1,1)"><g><path fill="none" stroke="none"/><text fill="#000000" stroke="none" font-family="Arial" font-size="13px" font-style="normal" font-weight="normal" text-decoration="none" x="248.13134765625" y="912.5">-joueur</text></g></g></g></svg>