<svg version="1.1" xmlns="http://www.w3.org/2000/svg" xmlns:xlink="http://www.w3.org/1999/xlink" width="747" height="436"><defs/><g><text fill="#eeeeee" stroke="none" font-family="Arial" font-size="24px" font-style="normal" font-weight="normal" text-decoration="none" x="0" y="0"></text><text fill="#eeeeee" stroke="none" font-family="Arial" font-size="24px" font-style="normal" font-weight="normal" text-decoration="none" x="0" y="30"></text><text fill="#eeeeee" stroke="none" font-family="Arial" font-size="24px" font-style="normal" font-weight="normal" text-decoration="none" x="0" y="60"></text><text fill="#eeeeee" stroke="none" font-family="Arial" font-size="24px" font-style="normal" font-weight="normal" text-decoration="none" x="0" y="90"></text><text fill="#eeeeee" stroke="none" font-family="Arial" font-size="24px" font-style="normal" font-weight="normal" text-decoration="none" x="0" y="120"></text><text fill="#eeeeee" stroke="none" font-family="Arial" font-size="24px" font-style="normal" font-weight="normal" text-decoration="none" x="0" y="150"></text><text fill="#eeeeee" stroke="none" font-family="Arial" font-size="24px" font-style="normal" font-weight="normal" text-decoration="none" x="0" y="180"></text><text fill="#eeeeee" stroke="none" font-family="Arial" font-size="24px" font-style="normal" font-weight="normal" text-decoration="none" x="0" y="210"></text><text fill="#eeeeee" stroke="none" font-family="Arial" font-size="24px" font-style="normal" font-weight="normal" text-decoration="none" x="0" y="240"></text><text fill="#eeeeee" stroke="none" font-family="Arial" font-size="24px" font-style="normal" font-weight="normal" text-decoration="none" x="0" y="270"></text><text fill="#eeeeee" stroke="none" font-family="Arial" font-size="24px" font-style="normal" font-weight="normal" text-decoration="none" x="0" y="300"></text><text fill="#eeeeee" stroke="none" font-family="Arial" font-size="24px" font-style="normal" font-weight="normal" text-decoration="none" x="0" y="330"></text><text fill="#eeeeee" stroke="none" font-family="Arial" font-size="24px" font-style="normal" font-weight="normal" text-decoration="none" x="0" y="360"></text><text fill="#eeeeee" stroke="none" font-family="Arial" font-size="24px" font-style="normal" font-weight="normal" text-decoration="none" x="0" y="390"></text><text fill="#eeeeee" stroke="none" font-family="Arial" font-size="24px" font-style="normal" font-weight="normal" text-decoration="none" x="0" y="420"></text><text fill="#eeeeee" stroke="none" font-family="Arial" font-size="24px" font-style="normal" font-weight="normal" text-decoration="none" x="200" y="0"></text><text fill="#eeeeee" stroke="none" font-family="Arial" font-size="24px" font-style="normal" font-weight="normal" text-decoration="none" x="200" y="30"></text><text fill="#eeeeee" stroke="none" font-family="Arial" font-size="24px" font-style="normal" font-weight="normal" text-decoration="none" x="200" y="60"></text><text fill="#eeeeee" stroke="none" font-family="Arial" font-size="24px" font-style="normal" font-weight="normal" text-decoration="none" x="200" y="90"></text><text fill="#eeeeee" stroke="none" font-family="Arial" font-size="24px" font-style="normal" font-weight="normal" text-decoration="none" x="200" y="120"></text><text fill="#eeeeee" stroke="none" font-family="Arial" font-size="24px" font-style="normal" font-weight="normal" text-decoration="none" x="200" y="150"></text><text fill="#eeeeee" stroke="none" font-family="Arial" font-size="24px" font-style="normal" font-weight="normal" text-decoration="none" x="200" y="180"></text><text fill="#eeeeee" stroke="none" font-family="Arial" font-size="24px" font-style="normal" font-weight="normal" text-decoration="none" x="200" y="210"></text><text fill="#eeeeee" stroke="none" font-family="Arial" font-size="24px" font-style="normal" font-weight="normal" text-decoration="none" x="200" y="240"></text><text fill="#eeeeee" stroke="none" font-family="Arial" font-size="24px" font-style="normal" font-weight="normal" text-decoration="none" x="200" y="270"></text><text fill="#eeeeee" stroke="none" font-family="Arial" font-size="24px" font-style="normal" font-weight="normal" text-decoration="none" x="200" y="300"></text><text fill="#eeeeee" stroke="none" font-family="Arial" font-size="24px" font-style="normal" font-weight="normal" text-decoration="none" x="200" y="330"></text><text fill="#eeeeee" stroke="none" font-family="Arial" font-size="24px" font-style="normal" font-weight="normal" text-decoration="none" x="200" y="360"></text><text fill="#eeeeee" stroke="none" font-family="Arial" font-size="24px" font-style="normal" font-weight="normal" text-decoration="none" x="200" y="390"></text><text fill="#eeeeee" stroke="none" font-family="Arial" font-size="24px" font-style="normal" font-weight="normal" text-decoration="none" x="200" y="420"></text><text fill="#eeeeee" stroke="none" font-family="Arial" font-size="24px" font-style="normal" font-weight="normal" text-decoration="none" x="400" y="0"></text><text fill="#eeeeee" stroke="none" font-family="Arial" font-size="24px" font-style="normal" font-weight="normal" text-decoration="none" x="400" y="30"></text><text fill="#eeeeee" stroke="none" font-family="Arial" font-size="24px" font-style="normal" font-weight="normal" text-decoration="none" x="400" y="60"></text><text fill="#eeeeee" stroke="none" font-family="Arial" font-size="24px" font-style="normal" font-weight="normal" text-decoration="none" x="400" y="90"></text><text fill="#eeeeee" stroke="none" font-family="Arial" font-size="24px" font-style="normal" font-weight="normal" text-decoration="none" x="400" y="120"></text><text fill="#eeeeee" stroke="none" font-family="Arial" font-size="24px" font-style="normal" font-weight="normal" text-decoration="none" x="400" y="150"></text><text fill="#eeeeee" stroke="none" font-family="Arial" font-size="24px" font-style="normal" font-weight="normal" text-decoration="none" x="400" y="180"></text><text fill="#eeeeee" stroke="none" font-family="Arial" font-size="24px" font-style="normal" font-weight="normal" text-decoration="none" x="400" y="210"></text><text fill="#eeeeee" stroke="none" font-family="Arial" font-size="24px" font-style="normal" font-weight="normal" text-decoration="none" x="400" y="240"></text><text fill="#eeeeee" stroke="none" font-family="Arial" font-size="24px" font-style="normal" font-weight="normal" text-decoration="none" x="400" y="270"></text><text fill="#eeeeee" stroke="none" font-family="Arial" font-size="24px" font-style="normal" font-weight="normal" text-decoration="none" x="400" y="300"></text><text fill="#eeeeee" stroke="none" font-family="Arial" font-size="24px" font-style="normal" font-weight="normal" text-decoration="none" x="400" y="330"></text><text fill="#eeeeee" stroke="none" font-family="Arial" font-size="24px" font-style="normal" font-weight="normal" text-decoration="none" x="400" y="360"></text><text fill="#eeeeee" stroke="none" font-family="Arial" font-size="24px" font-style="normal" font-weight="normal" text-decoration="none" x="400" y="390"></text><text fill="#eeeeee" stroke="none" font-family="Arial" font-size="24px" font-style="normal" font-weight="normal" text-decoration="none" x="400" y="420"></text><text fill="#eeeeee" stroke="none" font-family="Arial" font-size="24px" font-style="normal" font-weight="normal" text-decoration="none" x="600" y="0"></text><text fill="#eeeeee" stroke="none" font-family="Arial" font-size="24px" font-style="normal" font-weight="normal" text-decoration="none" x="600" y="30"></text><text fill="#eeeeee" stroke="none" font-family="Arial" font-size="24px" font-style="normal" font-weight="normal" text-decoration="none" x="600" y="60"></text><text fill="#eeeeee" stroke="none" font-family="Arial" font-size="24px" font-style="normal" font-weight="normal" text-decoration="none" x="600" y="90"></text><text fill="#eeeeee" stroke="none" font-family="Arial" font-size="24px" font-style="normal" font-weight="normal" text-decoration="none" x="600" y="120"></text><text fill="#eeeeee" stroke="none" font-family="Arial" font-size="24px" font-style="normal" font-weight="normal" text-decoration="none" x="600" y="150"></text><text fill="#eeeeee" stroke="none" font-family="Arial" font-size="24px" font-style="normal" font-weight="normal" text-decoration="none" x="600" y="180"></text><text fill="#eeeeee" stroke="none" font-family="Arial" font-size="24px" font-style="normal" font-weight="normal" text-decoration="none" x="600" y="210"></text><text fill="#eeeeee" stroke="none" font-family="Arial" font-size="24px" font-style="normal" font-weight="normal" text-decoration="none" x="600" y="240"></text><text fill="#eeeeee" stroke="none" font-family="Arial" font-size="24px" font-style="normal" font-weight="normal" text-decoration="none" x="600" y="270"></text><text fill="#eeeeee" stroke="none" font-family="Arial" font-size="24px" font-style="normal" font-weight="normal" text-decoration="none" x="600" y="300"></text><text fill="#eeeeee" stroke="none" font-family="Arial" font-size="24px" font-style="normal" font-weight="normal" text-decoration="none" x="600" y="330"></text><text fill="#eeeeee" stroke="none" font-family="Arial" font-size="24px" font-style="normal" font-weight="normal" text-decoration="none" x="600" y="360"></text><text fill="#eeeeee" stroke="none" font-family="Arial" font-size="24px" font-style="normal" font-weight="normal" text-decoration="none" x="600" y="390"></text><text fill="#eeeeee" stroke="none" font-family="Arial" font-size="24px" font-style="normal" font-weight="normal" text-decoration="none" x="600" y="420"></text><g transform="translate(-606,-166) scale(1,1)"><rect fill="#C0C0C0" stroke="none" x="759" y="183" width="591" height="416" opacity="0.2"/></g><g transform="translate(-606,-166) scale(1,1)"><rect fill="#ffffff" stroke="none" x="752" y="176" width="591" height="416"/></g><g transform="translate(-606,-166) scale(1,1)"><path fill="none" stroke="#000000" d="M 752 176 L 1343 176 L 1343 592 L 752 592 L 752 176 Z Z" stroke-miterlimit="10"/></g><g transform="translate(-606,-166) scale(1,1)"><g><path fill="none" stroke="none"/><text fill="#000000" stroke="none" font-family="Arial" font-size="13px" font-style="normal" font-weight="bold" text-decoration="none" x="1025.825927734375" y="195.5">Jumper</text></g></g><g transform="translate(-606,-166) scale(1,1)"><path fill="#00a9ff" stroke="none" d="M 664.9125241477273 201.68 C 664.9125241477273 196.886167936 668.7983664726727 193 673.591796875 193 C 678.3852272773273 193 682.2710696022727 196.886167936 682.2710696022727 201.68 C 682.2710696022727 206.47383206400002 678.3852272773273 210.36 673.591796875 210.36 C 668.7983664726727 210.36 664.9125241477273 206.47383206400002 664.9125241477273 201.68 Z"/></g><g transform="translate(-606,-166) scale(1,1)"><path fill="none" stroke="#000000" d="M 664.9125241477273 201.68 C 664.9125241477273 196.886167936 668.7983664726727 193 673.591796875 193 C 678.3852272773273 193 682.2710696022727 196.886167936 682.2710696022727 201.68 C 682.2710696022727 206.47383206400002 678.3852272773273 210.36 673.591796875 210.36 C 668.7983664726727 210.36 664.9125241477273 206.47383206400002 664.9125241477273 201.68 Z" stroke-miterlimit="10"/></g><g transform="translate(-606,-166) scale(1,1)"><path fill="none" stroke="#000000" d="M 673.591796875 210.36 L 673.591796875 227.64" stroke-miterlimit="10"/></g><g transform="translate(-606,-166) scale(1,1)"><path fill="none" stroke="#000000" d="M 664.4019786931818 216.84 L 682.7816150568182 216.84" stroke-miterlimit="10"/></g><g transform="translate(-606,-166) scale(1,1)"><path fill="none" stroke="#000000" d="M 673.591796875 227.64 L 660.8281605113636 245" stroke-miterlimit="10"/></g><g transform="translate(-606,-166) scale(1,1)"><path fill="none" stroke="#000000" d="M 673.591796875 227.64 L 686.3554332386364 245" stroke-miterlimit="10"/></g><g transform="translate(-606,-166) scale(1,1)"><g><path fill="none" stroke="none"/><text fill="#000000" stroke="none" font-family="Arial" font-size="13px" font-style="normal" font-weight="bold" text-decoration="none" x="653.71728515625" y="265.5">Joueur</text></g></g><g transform="translate(-606,-166) scale(1,1)"><path fill="#C0C0C0" stroke="none" d="M 959 248 C 959 238.6111584 991.459352 231 1031.5 231 C 1071.540648 231 1104 238.6111584 1104 248 C 1104 257.3888416 1071.540648 265 1031.5 265 C 991.459352 265 959 257.3888416 959 248 Z" opacity="0.2"/></g><g transform="translate(-606,-166) scale(1,1)"><path fill="#00a9ff" stroke="none" d="M 952 241 C 952 231.6111584 984.459352 224 1024.5 224 C 1064.540648 224 1097 231.6111584 1097 241 C 1097 250.3888416 1064.540648 258 1024.5 258 C 984.459352 258 952 250.3888416 952 241 Z"/></g><g transform="translate(-606,-166) scale(1,1)"><path fill="none" stroke="#000000" d="M 952 241 C 952 231.6111584 984.459352 224 1024.5 224 C 1064.540648 224 1097 231.6111584 1097 241 C 1097 250.3888416 1064.540648 258 1024.5 258 C 984.459352 258 952 250.3888416 952 241 Z" stroke-miterlimit="10"/></g><g transform="translate(-606,-166) scale(1,1)"><g><path fill="none" stroke="none"/><text fill="#000000" stroke="none" font-family="Arial" font-size="13px" font-style="normal" font-weight="bold" text-decoration="none" x="1008.240478515625" y="248">Jouer</text></g></g><g transform="translate(-606,-166) scale(1,1)"><path fill="none" stroke="#000000" d="M 732 235 L 792 240 L 951 241" stroke-miterlimit="10"/></g><g transform="translate(-606,-166) scale(1,1)"><path fill="#C0C0C0" stroke="none" d="M 1167 312 C 1167 302.6111584 1195.4299152 295 1230.5 295 C 1265.5700848 295 1294 302.6111584 1294 312 C 1294 321.3888416 1265.5700848 329 1230.5 329 C 1195.4299152 329 1167 321.3888416 1167 312 Z" opacity="0.2"/></g><g transform="translate(-606,-166) scale(1,1)"><path fill="#00a9ff" stroke="none" d="M 1160 305 C 1160 295.6111584 1188.4299152 288 1223.5 288 C 1258.5700848 288 1287 295.6111584 1287 305 C 1287 314.3888416 1258.5700848 322 1223.5 322 C 1188.4299152 322 1160 314.3888416 1160 305 Z"/></g><g transform="translate(-606,-166) scale(1,1)"><path fill="none" stroke="#000000" d="M 1160 305 C 1160 295.6111584 1188.4299152 288 1223.5 288 C 1258.5700848 288 1287 295.6111584 1287 305 C 1287 314.3888416 1258.5700848 322 1223.5 322 C 1188.4299152 322 1160 314.3888416 1160 305 Z" stroke-miterlimit="10"/></g><g transform="translate(-606,-166) scale(1,1)"><g><path fill="none" stroke="none"/><text fill="#000000" stroke="none" font-family="Arial" font-size="13px" font-style="normal" font-weight="bold" text-decoration="none" x="1204.34912109375" y="312">Sauter</text></g></g><g transform="translate(-606,-166) scale(1,1)"><path fill="none" stroke="#000000" d="M 1080 259 L 1167 287" stroke-miterlimit="10" stroke-dasharray="3"/></g><g transform="translate(-606,-166) scale(1,1)"><path fill="none" stroke="#000000" d="M 1156.0363589874821 287.8936306556046 L 1167 287 L 1158.6156427970996 279.8794273900079" stroke-miterlimit="10"/></g><g transform="translate(-606,-166) scale(1,1)"><g><path fill="none" stroke="none"/><text fill="#000000" stroke="none" font-family="Arial" font-size="13px" font-style="normal" font-weight="normal" text-decoration="none" x="1104.5" y="250.5">«include»</text></g></g><g transform="translate(-606,-166) scale(1,1)"><path fill="#C0C0C0" stroke="none" d="M 911 334.5 C 911 321.5213072 941.4446336 311 979 311 C 1016.5553664 311 1047 321.5213072 1047 334.5 C 1047 347.4786928 1016.5553664 358 979 358 C 941.4446336 358 911 347.4786928 911 334.5 Z" opacity="0.2"/></g><g transform="translate(-606,-166) scale(1,1)"><path fill="#00a9ff" stroke="none" d="M 904 327.5 C 904 314.5213072 934.4446336 304 972 304 C 1009.5553664 304 1040 314.5213072 1040 327.5 C 1040 340.4786928 1009.5553664 351 972 351 C 934.4446336 351 904 340.4786928 904 327.5 Z"/></g><g transform="translate(-606,-166) scale(1,1)"><path fill="none" stroke="#000000" d="M 904 327.5 C 904 314.5213072 934.4446336 304 972 304 C 1009.5553664 304 1040 314.5213072 1040 327.5 C 1040 340.4786928 1009.5553664 351 972 351 C 934.4446336 351 904 340.4786928 904 327.5 Z" stroke-miterlimit="10"/></g><g transform="translate(-606,-166) scale(1,1)"><g><path fill="none" stroke="none"/><text fill="#000000" stroke="none" font-family="Arial" font-size="13px" font-style="normal" font-weight="bold" text-decoration="none" x="931.175048828125" y="334.5">Ecrire Pseudo</text></g></g><g transform="translate(-606,-166) scale(1,1)"><path fill="none" stroke="#000000" d="M 1013 259 L 987 303" stroke-miterlimit="10" stroke-dasharray="3"/></g><g transform="translate(-606,-166) scale(1,1)"><path fill="none" stroke="#000000" d="M 988.5459650825425 292.1091785450518 L 987 303 L 995.7941360968292 296.3921886898576" stroke-miterlimit="10"/></g><g transform="translate(-606,-166) scale(1,1)"><g><path fill="none" stroke="none"/><text fill="#000000" stroke="none" font-family="Arial" font-size="13px" font-style="normal" font-weight="normal" text-decoration="none" x="1006.5" y="302.5">«extend»</text></g></g><g transform="translate(-606,-166) scale(1,1)"><path fill="#C0C0C0" stroke="none" d="M 863 454.5 C 863 432.6847504 895.9070672 415 936.5 415 C 977.0929328 415 1010 432.6847504 1010 454.5 C 1010 476.3152496 977.0929328 494 936.5 494 C 895.9070672 494 863 476.3152496 863 454.5 Z" opacity="0.2"/></g><g transform="translate(-606,-166) scale(1,1)"><path fill="#00a9ff" stroke="none" d="M 856 447.5 C 856 425.6847504 888.9070672 408 929.5 408 C 970.0929328 408 1003 425.6847504 1003 447.5 C 1003 469.3152496 970.0929328 487 929.5 487 C 888.9070672 487 856 469.3152496 856 447.5 Z"/></g><g transform="translate(-606,-166) scale(1,1)"><path fill="none" stroke="#000000" d="M 856 447.5 C 856 425.6847504 888.9070672 408 929.5 408 C 970.0929328 408 1003 425.6847504 1003 447.5 C 1003 469.3152496 970.0929328 487 929.5 487 C 888.9070672 487 856 469.3152496 856 447.5 Z" stroke-miterlimit="10"/></g><g transform="translate(-606,-166) scale(1,1)"><g><path fill="none" stroke="none"/><text fill="#000000" stroke="none" font-family="Arial" font-size="13px" font-style="normal" font-weight="bold" text-decoration="none" x="884.701416015625" y="454.5">Relancer Partie</text></g></g><g transform="translate(-606,-166) scale(1,1)"><path fill="none" stroke="#000000" d="M 882 407 L 722 272" stroke-miterlimit="10"/></g><g transform="translate(-606,-166) scale(1,1)"><path fill="none" stroke="#000000" d="M 1004 411 L 1186 323" stroke-miterlimit="10" stroke-dasharray="3"/></g><g transform="translate(-606,-166) scale(1,1)"><path fill="none" stroke="#000000" d="M 1178.6831158151253 331.21359883517147 L 1186 323 L 1175.0182901414228 323.6340730100141" stroke-miterlimit="10"/></g><g transform="translate(-606,-166) scale(1,1)"><g><path fill="none" stroke="none"/><text fill="#000000" stroke="none" font-family="Arial" font-size="13px" font-style="normal" font-weight="normal" text-decoration="none" x="1142.5" y="363.5">«include»</text></g></g></g></svg>